<svg version="1.2" xmlns="http://www.w3.org/2000/svg" viewBox="0 0 1588 489" width="1588" height="489">
	<title>cb801293-b1a6-4e2a-af03-55a7eef8561c-2-pdf-svg</title>
	<style>
		.s0 { fill: #808285 } 
		.s1 { fill: #f99d1c } 
	</style>
	<path id="Path 7" fill-rule="evenodd" class="s0" d="m776 204.4c-9.9 0-20.6-1.7-29.7-5.8-9.9-4.1-18.2-9.1-26.4-17.3-6.6-6.6-13.2-15.7-16.5-24.8-4.2-9-5.8-18.9-5.8-29.7 0-10.7 1.6-19.8 5.8-29.7q6.6-14 16.5-24.7c8.2-7.4 16.5-12.4 26.4-16.5 9.1-4.1 19.8-5.8 29.7-5.8h0.8c10.7 0 19.8 1.7 29.7 5.8 9.1 4.1 18.2 9.1 25.6 16.5 7.4 8.2 13.2 16.5 17.4 25.6 3.3 9 5.7 18.9 5.7 28.8 0 10.8-2.4 20.7-5.7 29.7q-5.8 14.9-17.4 24.8c-7.4 8.2-16.5 13.2-25.6 17.3-9.9 4.1-19.8 5.8-29.7 5.8zm-31.3-110.6c-8.3 8.3-12.4 19.8-12.4 33q0 19.8 12.4 34.7c9 9.1 18.9 14 32.1 14 11.6 0 22.3-5 30.6-14q13.2-14 13.2-34.7c0-13.2-4.1-24.7-13.2-33-8.3-9.9-19-14-30.6-14-13.2 0-23.1 4.1-32.1 14zm-114 104.8v-114.7h-111.4v-28.8h111.4v-53.7h33.1v53.7h24.7v28.8h-24.7v114.7zm283.1-121.3c3.3-9 8.2-15.6 14-20.6 5.8-4.1 12.4-6.6 21.5-6.6 4.1 0 9 0 14 1.7 4.1 1.6 9.1 2.4 13.2 4.9l-12.4 28.1c-3.3-2.5-5.8-4.2-9.1-4.2-3.3-1.6-7.4-2.4-10.7-2.4-10.7 0-19 4.9-23.9 13.2-4.2 9-6.6 23.9-6.6 43.7v63.5h-33v-143.5h33zm155.1 6.6c-2.4-2.5-5.7-3.3-9-4.2-3.3-1.6-6.6-1.6-10.8-1.6-11.5 0-18.9 4.1-23.1 13.2q-7.4 13.2-7.4 43.7v62.7h-33v-143.5h33v23.1c3.3-9.9 7.4-16.5 14-21.5 5.8-4.1 13.2-6.6 21.5-6.6q6.6 0 13.2 1.7c4.9 1.6 9.1 2.4 13.2 4.9 0.8 0 0.8 0 0.8 0l-0.8 1.7zm10.7 42c0-2.4 0-6.6 0-9.9 2.5-17.3 9.1-33 21.5-44.5 14-14.9 32.2-22.3 53.6-22.3h0.9c22.3 0 40.4 6.6 53.6 19.8q19 20.6 19 55.3v6.6h-114.7c0.8 13.2 4.9 23.9 12.4 31.3q9.9 11.6 28 11.6h1.7v29.7h-0.9c-23.1 0-41.2-6.6-54.4-20.6-11.6-12.4-18.2-26.4-20.7-45.4 0-3.3 0-7.4 0-11.6zm49.6-40.4c-5.8 5-10.8 13.2-13.3 23.1h78.5c-0.9-9.9-5-18.1-11.6-23.1-6.6-5.8-15.7-8.2-27.2-8.2-10.8 0-19.8 2.4-26.4 8.2zm305.3 112.2v-114.7h-24.7v-28.8h24.7v-53.7h32.2v53.7h120.5v28.8h-120.5v114.7zm-180.7 0v-143.5h31.3v23.1c5.8-9.1 13.2-16.5 22.3-21.5 9.1-4.1 19.8-6.6 32.2-6.6q16.1 0 27.3 5c8.2 4.1 14 9 18.1 14.8 2.5 4.1 4.1 9.1 5.8 14 0.8 5 0.8 14.9 0.8 27.3v87.4h-33v-74.2c0-18.2-1.6-30.6-6.6-37.2-4.1-6.6-12.4-9-23.9-9-7.5 0-14.9 1.6-21.5 4.1-4.9 3.3-10.7 6.6-13.2 12.4-3.3 2.4-5 7.4-5.8 13.2-0.8 4.9-0.8 14-0.8 25.5v65.2zm-98.2 5.8v-29.7c9.9-0.8 18.1-2.5 25.6-6.6 6.6-5 13.2-11.6 18.1-22.3l28.1 16.5c-8.3 14-19 24.8-30.6 31.4-11.5 7.4-25.5 10.7-41.2 10.7zm-493.6 284.6h-31.4v-104.8h83.4q21.5 0 28.9 7.4 7.4 8.3 7.4 22.3v8.3q0 14.8-7.4 23.1-7.4 7.4-28.9 7.4h-52zm37.1-60.2q12.4 0 16.5-4.2 3.3-3.3 3.3-5.7 0-3.3-3.3-6.6-4.1-4.2-16.5-4.2h-37.1v20.7zm214.6 52.8q-7.4 7.4-28.9 7.4h-46.2q-20.7 0-28.9-7.4-8.3-7.5-8.3-23.1v-44.6q0-14.8 8.3-22.3 8.2-7.4 28.9-7.4h46.2q21.5 0 28.9 7.4 8.2 8.3 8.2 22.3v44.6q0 14.8-8.2 23.1zm-23.9-57q0-9-3.3-12.3-3.3-4.2-16.6-4.2h-17.3q-11.5 0-15.7 4.2-4.1 4.1-4.1 12.3v24q0 8.2 4.1 12.3 4.2 4.2 15.7 4.2h17.3q13.3 0 16.6-4.2 3.3-4.1 3.3-12.3zm120.5 64.3q-21.5 0-29.8-7.4-8.2-7.4-8.2-22.3v-75.1h32.2v64.4q0 8.2 4.1 12.4 3.3 4.1 14.9 4.1h9l0.9-80.9h31.3v80.9h10.8q12.3 0 15.7-3.3 4.1-4.1 4.1-13.2v-64.4h31.3v75.1q0 14-7.4 22.3-8.2 7.4-29.7 7.4zm199.7-40.4q0 8.2 4.2 12.4 4.1 4.1 15.7 4.1h68.5v23.9h-82.6q-21.4 0-29.7-7.4-7.4-7.4-7.4-22.3v-44.5q0-15.7 7.4-23.1 8.3-7.5 29.7-7.5h82.6v24h-68.5q-11.6 0-15.7 4.1-4.2 4.9-4.2 12.4h88.4v23.9zm261.6 40.4h-35.5l-34.6-36.3h-19.9v36.3h-31.3v-104.8h83.3q21.5 0 28.9 7.5 7.5 8.2 7.5 23.1v8.2q0 14.9-7.5 22.3-7.4 7.4-21.4 7.4h-4.2zm-52.8-59.4q12.4 0 15.7-4.1 3.3-4.1 3.3-6.6 0-2.5-3.3-6.6-3.3-4.1-15.7-4.1h-38v21.4z"/>
	<path id="Path 8" fill-rule="evenodd" class="s1" d="m629.9 277.8h836.1v26.4h-836.1zm-141.1-172.4v278l-104.9 104.8h-278.1l-104.8-104.8v-278l104.8-104.8h278.1zm-198.1 278h93.3v-92.4h-93.3zm-184.8 0h92.4v-92.4h-92.4zm278.1-277.2h-93.3v92.4h-92.4v-92.4h-92.4v92.4h92.4v92.4h92.4v-92.4h93.3z"/>
</svg>